<svg xmlns="http://www.w3.org/2000/svg" version="1.1" xmlns:xlink="http://www.w3.org/1999/xlink" width="2000" height="1500" viewBox="0 0 2000 1500"><rect width="2000" height="1500" x="0" y="0" id="background" stroke="transparent" fill="#ffffff"></rect><svg xml:space="preserve" width="1500" height="1125" data-version="2" data-id="lg_OEqfLW320Eo9PKZLp6" viewBox="0 0 310 277" x="250" y="187.5"><rect width="100%" height="100%" fill="transparent"></rect><path d="M155 2.44C71.126 2.44 3.132 63.358 3.132 138.5c0 75.145 67.994 136.06 151.868 136.06s151.868-60.915 151.868-136.06C306.868 63.358 238.874 2.44 155 2.44m76.943 195.177c-99.537 59.384-188.541-2.066-205.67-19.997 44.903 35.108 115.534 46.015 174.686 21.03 35.052-16.658 53.723-39.22 62.485-69.2 8.765-33.311-1.66-64.958-34.525-86.613-30.672-19.988-70.111-26.65-109.544-16.657C88.704 36.175 64.6 54.496 55.839 81.146c-10.953 28.316 8.765 56.629 41.627 71.619 32.861 11.66 78.873 6.662 96.4-19.985 10.953-18.324 6.572-41.642-17.527-53.301-10.953-4.998-25.726-6.058-33.649.539-10.91 9.084 5.856 1.118 18.2 6.835 7.799 3.61 17.351 9.806 15.449 25.94-2.392 20.322-35.053 29.983-56.964 23.318-24.1-8.328-35.056-26.65-32.862-44.973 4.381-19.988 24.1-34.978 48.202-39.976 41.627-8.328 78.87 13.327 92.016 43.31 10.953 28.313-6.572 54.962-37.246 71.62-26.287 13.325-56.964 16.656-85.444 8.328-41.627-11.66-70.108-39.973-72.298-74.95-2.194-44.974 37.24-78.285 92.013-89.944 61.345-9.992 122.69 13.326 148.98 56.63 24.1 44.973 11.185 100.45-40.793 131.461"></path></svg></svg>